<?xml version="1.0" standalone="no"?>
<!DOCTYPE svg PUBLIC "-//W3C//DTD SVG 20010904//EN"
 "http://www.w3.org/TR/2001/REC-SVG-20010904/DTD/svg10.dtd">
<svg version="1.0" xmlns="http://www.w3.org/2000/svg"
 width="777.000000pt" height="262.000000pt" viewBox="0 0 777.000000 262.000000"
 preserveAspectRatio="xMidYMid meet">

<g transform="translate(0.000000,262.000000) scale(0.100000,-0.100000)" fill="#EEEEEE" stroke="none">
    <path d="M2620 1275 l0 -1085 30 0 30 0 0 1085 0 1085 -30 0 -30 0 0 -1085z"/>
    <path d="M1284 2195 c-21 -32 -22 -107 0 -139 22 -34 32 -33 57 7 23 37 21 92
    -5 132 -21 31 -31 31 -52 0z"/>
    <path d="M1106 2048 c-28 -43 -30 -98 -4 -147 13 -25 33 -51 44 -58 20 -13 23
    -11 38 21 31 65 17 134 -37 184 l-25 24 -16 -24z"/>
    <path d="M1513 2055 c-49 -34 -68 -136 -37 -196 13 -27 17 -29 32 -17 49 38
    75 111 60 168 -14 51 -29 63 -55 45z"/>
    <path d="M2982 1653 l3 -418 87 -3 88 -3 2 248 3 247 122 -200 121 -199 43 0
    43 0 121 202 120 202 5 -247 5 -247 88 -3 87 -3 0 421 0 420 -78 0 -78 0 -132
    -222 c-72 -123 -142 -240 -155 -262 l-24 -38 -25 43 c-14 24 -84 142 -157 262
    l-133 217 -79 0 -79 0 2 -417z"/>
    <path d="M6350 1950 l0 -120 355 0 c195 0 355 -3 355 -6 0 -4 -79 -100 -175
    -215 l-175 -208 0 -100 0 -101 118 0 c190 0 297 -42 342 -135 39 -82 19 -196
    -46 -257 -127 -119 -451 -106 -665 27 -33 20 -62 35 -64 33 -10 -9 -115 -201
    -115 -208 0 -13 104 -72 190 -107 129 -53 215 -68 395 -68 218 1 323 31 446
    128 158 126 212 355 128 546 -54 124 -196 223 -354 246 -25 4 -45 11 -45 17 0
    5 83 107 185 228 l185 219 0 101 0 100 -530 0 -530 0 0 -120z"/>
    <path d="M850 2005 c0 -63 60 -135 113 -135 41 0 5 109 -47 141 -44 27 -66 25
    -66 -6z"/>
    <path d="M1751 2017 c-36 -18 -62 -59 -68 -105 -5 -35 -3 -42 12 -42 32 0 75
    35 96 77 33 67 15 99 -40 70z"/>
    <path d="M1297 1871 c-41 -45 -55 -103 -37 -156 13 -41 18 -42 52 -15 31 24
    58 78 58 118 0 34 -19 92 -30 92 -4 0 -23 -17 -43 -39z"/>
    <path d="M4354 1879 c-168 -21 -286 -152 -288 -319 -2 -208 152 -339 388 -328
    97 5 155 24 211 72 l30 25 -51 51 -51 52 -37 -26 c-68 -46 -188 -44 -250 5
    -23 18 -56 67 -56 83 0 3 109 7 243 8 l242 3 -1 60 c-3 205 -168 341 -380 314z
    m137 -155 c32 -16 69 -68 69 -96 0 -15 -16 -17 -155 -17 -170 -1 -171 0 -141
    58 38 73 143 99 227 55z"/>
    <path d="M5015 1863 c-72 -25 -158 -112 -179 -183 -61 -204 54 -381 263 -410
    69 -9 147 8 201 44 l40 26 0 -40 c0 -53 -30 -110 -70 -134 -68 -39 -207 -30
    -299 20 -24 13 -45 23 -46 22 -11 -14 -65 -117 -65 -126 0 -16 97 -59 167 -72
    85 -17 265 -8 318 15 107 46 158 125 175 265 6 47 9 198 8 335 l-3 250 -87 3
    -88 3 0 -42 0 -42 -22 20 c-46 42 -90 57 -178 60 -61 2 -99 -2 -135 -14z m245
    -148 c105 -54 109 -213 8 -275 -48 -29 -144 -28 -188 3 -56 37 -73 69 -73 132
    0 63 17 95 73 133 40 27 134 31 180 7z"/>
    <path d="M5820 1867 c-52 -15 -118 -45 -126 -58 -2 -4 9 -35 25 -67 l30 -59
    50 24 c59 30 153 40 204 24 44 -15 77 -54 77 -92 l0 -27 -128 -4 c-118 -3
    -131 -5 -187 -33 -49 -24 -64 -38 -82 -75 -38 -74 -24 -153 36 -210 45 -43 97
    -60 185 -60 75 0 127 18 169 57 l27 27 0 -42 0 -42 85 0 85 0 0 200 c0 109 -5
    221 -11 249 -16 75 -57 131 -120 165 -49 27 -64 30 -164 33 -69 2 -127 -2
    -155 -10z m260 -405 c0 -44 -20 -76 -60 -97 -56 -29 -158 -11 -174 30 -13 34
    -5 64 20 84 23 18 41 21 120 21 l94 0 0 -38z"/>
    <path d="M744 1819 c15 -74 89 -139 159 -139 34 0 35 20 5 80 -25 50 -89 90
    -141 90 -28 0 -29 -2 -23 -31z"/>
    <path d="M1818 1830 c-45 -24 -77 -68 -85 -115 -5 -32 -4 -35 20 -35 75 0 141
    58 161 143 6 25 4 27 -26 27 -18 -1 -50 -10 -70 -20z"/>
    <path d="M510 1790 c0 -31 43 -79 84 -95 83 -32 110 -1 54 61 -29 31 -42 37
    -86 42 -38 3 -52 1 -52 -8z"/>
    <path d="M2041 1782 c-19 -10 -43 -34 -53 -52 -16 -31 -16 -35 -2 -43 22 -13
    77 0 108 24 23 18 56 67 56 84 0 13 -78 3 -109 -13z"/>
    <path d="M1010 1766 c0 -49 61 -111 129 -131 23 -7 24 -6 18 35 -6 48 -37 86
    -84 106 -47 20 -63 18 -63 -10z"/>
    <path d="M1520 1748 c-48 -25 -75 -57 -86 -100 -6 -26 -4 -28 25 -28 70 0 151
    69 151 128 0 16 -6 22 -23 22 -12 0 -43 -10 -67 -22z"/>
    <path d="M680 1591 c-14 -4 -24 -14 -22 -21 6 -26 44 -71 73 -86 33 -17 118
    -21 143 -7 14 8 13 13 -9 46 -14 20 -38 43 -54 52 -37 18 -99 26 -131 16z"/>
    <path d="M1860 1578 c-25 -13 -55 -38 -68 -57 -20 -31 -21 -36 -7 -44 22 -12
    94 -11 125 2 51 21 101 84 83 102 -22 22 -87 21 -133 -3z"/>
    <path d="M1274 1544 c-26 -61 -1 -143 55 -184 30 -20 30 -20 40 -1 6 11 11 43
    11 72 0 57 -24 106 -66 133 -24 17 -25 17 -40 -20z"/>
    <path d="M970 1554 c0 -53 79 -114 148 -114 37 0 40 2 35 23 -16 61 -79 107
    -147 107 -26 0 -36 -4 -36 -16z"/>
    <path d="M1580 1552 c-35 -17 -80 -73 -80 -98 0 -19 73 -18 109 1 37 19 81 71
    81 96 0 15 -7 19 -37 19 -21 0 -54 -8 -73 -18z"/>
    <path d="M403 1550 c-67 -27 43 -106 119 -86 47 12 54 23 33 46 -41 45 -100
    61 -152 40z"/>
    <path d="M2138 1538 c-59 -34 -59 -59 0 -74 35 -10 87 4 116 31 32 30 33 39 1
    53 -38 18 -75 14 -117 -10z"/>
    <path d="M592 1380 c-40 -25 -38 -38 14 -68 46 -27 126 -26 169 2 26 17 26 18
    8 38 -46 51 -132 64 -191 28z"/>
    <path d="M1908 1379 c-51 -30 -54 -46 -15 -69 43 -27 109 -26 158 2 49 27 55
    44 23 65 -42 27 -122 28 -166 2z"/>
    <path d="M928 1363 c-53 -14 31 -105 114 -123 55 -12 118 -4 125 17 6 18 -49
    75 -92 94 -37 17 -106 23 -147 12z"/>
    <path d="M1584 1351 c-47 -21 -94 -68 -94 -92 0 -40 141 -31 203 13 29 21 63
    76 53 86 -4 3 -32 7 -64 9 -41 3 -68 -2 -98 -16z"/>
    <path d="M453 1234 c-66 -33 -45 -74 36 -74 49 0 111 30 111 53 0 35 -92 48
    -147 21z"/>
    <path d="M2077 1234 c-24 -13 -26 -18 -16 -30 34 -41 112 -56 164 -32 31 14
    28 26 -15 56 -38 26 -92 28 -133 6z"/>
    <path d="M1287 1228 c-9 -7 -19 -25 -22 -40 -5 -21 -1 -33 19 -52 29 -30 52 -33 84 -10 28 19 30 74 4 97 -22 20 -62 22 -85 5z"/>
    <path d="M770 1209 c-27 -11 -70 -48 -70 -60 0 -12 38 -31 80 -40 46 -11 103 5 142 40 l31 28 -45 21 c-47 23 -97 27 -138 11z"/>
    <path d="M1745 1198 l-39 -21 32 -28 c55 -49 137 -57 200 -18 27 17 27 20 0 47 -50 46 -128 54 -193 20z"/>
    <path d="M1054 1138 c-5 -7 6 -22 27 -37 51 -39 88 -80 110 -123 29 -56 42 -176 35 -313 -10 -181 -34 -255 -102 -315 l-38 -33 62 5 c42 3 79 14 121 35 l59 31 62 -31 c39 -19 82 -32 118 -35 l57 -4 -37 38 c-50 52 -76 115 -89 215 -14 98 -6 319 12 369 20 56 66 116 114 151 25 18 45 36 45 41 0 39 -140 -20 -227 -97 l-52 -46 -63 51 c-61 49 -168 110 -194 110 -7 0 -16 -5 -20 -12z"/>
    <path d="M869 1001 c-45 -45 -49 -68 -14 -77 49 -12 145 57 145 105 0 6 -19 11 -46 11 -40 0 -51 -5 -85 -39z"/>
    <path d="M1660 1030 c0 -32 35 -73 77 -92 43 -19 93 -19 93 1 0 17 -47 76 -70 88 -30 15 -100 17 -100 3z"/>
    <path d="M2980 631 l0 -151 93 0 c71 0 100 4 127 19 46 24 72 70 72 126 0 99 -60 145 -203 153 l-89 5 0 -152z m190 84 c37 -19 50 -43 50 -90 0 -71 -42 -105 -130 -105 l-50 0 0 105 0 105 50 0 c28 0 64 -7 80 -15z"/>
    <path d="M3380 630 l0 -150 30 0 c30 0 30 1 30 55 l0 55 70 0 c68 0 70 1 70 25 0 24 -2 25 -70 25 l-70 0 0 45 0 45 80 0 c79 0 80 0 80 25 l0 25 -110 0 -110 0 0 -150z"/>
    <path d="M3700 630 l0 -150 25 0 c22 0 25 4 25 39 l0 38 59 6 c75 8 109 24 127 58 18 36 18 63 -1 99 -19 36 -90 60 -177 60 l-58 0 0 -150z m166 92 c23 -15 34 -50 25 -75 -12 -30 -29 -37 -92 -37 l-49 0 0 60 0 60 53 0 c28 0 57 -4 63 -8z"/>
  </g>
</svg>
